# This file uses centimeters as units for non-parametric coordinates.

mtllib Bambino.mtl
g default
v 0.430368 0.208274 0.062816
v 0.269165 0.256656 0.158798
v 0.441263 0.177224 0.077645
v 0.271504 0.186986 0.203278
v 0.273939 0.278019 0.062816
v 0.419220 0.226762 0.023994
v 0.439002 0.144765 0.062816
v 0.414182 0.227946 -0.023994
v 0.280587 0.099657 0.164455
v 0.429624 0.124514 0.023994
v -0.001689 0.267774 0.203278
v 0.417244 0.211107 -0.062817
v 0.264475 0.286809 -0.062817
v 0.424106 0.125296 -0.023994
v 0.424761 0.180288 -0.077645
v 0.005788 0.287001 0.077645
v 0.425073 0.146961 -0.062817
v 0.283945 0.044061 0.062816
v -0.004716 0.182868 0.251266
v -0.004827 0.071807 0.203278
v 0.249669 0.273378 -0.158798
v 0.273159 0.047328 -0.062817
v 0.257230 0.109019 -0.164456
v 0.248192 0.201284 -0.203278
v -0.238376 0.229451 0.203278
v 0.005273 0.297613 -0.077645
v -0.004423 0.000000 0.077645
v -0.245092 0.124709 0.164455
v -0.001689 0.288243 -0.203278
v -0.294813 0.234418 0.182662
v -0.197472 0.307618 0.185453
v -0.004827 0.004032 -0.077645
v -0.004827 0.082739 -0.203278
v -0.004716 0.200036 -0.251266
v -0.247346 0.056634 0.062816
v -0.398701 0.455712 0.048144
v -0.384098 0.469192 0.018389
v -0.419469 0.428535 0.059509
v -0.384098 0.469192 -0.018389
v -0.434235 0.395451 0.048144
v -0.398701 0.455712 -0.048144
v -0.441592 0.371688 0.018389
v -0.419469 0.428535 -0.059509
v -0.441592 0.371688 -0.018389
v -0.434235 0.395451 -0.048144
v -0.238376 0.232905 -0.203278
v -0.391449 0.203125 0.062816
v -0.247346 0.057252 -0.062817
v -0.245092 0.126773 -0.164456
v -0.198645 0.313936 -0.185249
v -0.312576 0.229908 -0.182696
v -0.391449 0.203125 -0.062817
v -0.082317 0.397551 0.048144
v -0.162053 0.485175 0.059509
v -0.197587 0.424915 0.155796
v -0.111064 0.348799 0.126042
v -0.277323 0.512540 0.048144
v -0.306071 0.463788 0.126042
v -0.064624 0.304361 0.062363
v -0.138947 0.301513 0.143878
v -0.082317 0.397551 -0.048144
v -0.162053 0.485176 -0.059509
v -0.352585 0.384906 0.155796
v -0.255081 0.327412 0.177688
v -0.277323 0.512540 -0.048144
v -0.062854 0.310809 -0.065884
v -0.111064 0.348799 -0.126042
v -0.197587 0.424915 -0.155796
v -0.399099 0.306025 0.126042
v -0.306071 0.463788 -0.126042
v -0.134679 0.308751 -0.141148
v -0.427846 0.257273 0.048144
v -0.352585 0.384906 -0.155796
v -0.255081 0.327412 -0.177689
v -0.427846 0.257273 -0.048144
v -0.399099 0.306025 -0.126042
vt 0.419771 0.088779
vt 0.445169 0.138639
vt 0.695264 0.610994
vt 0.526785 0.612210
vt 0.771526 0.607833
vt 0.459487 0.611954
vt 0.664837 0.822833
vt 0.435379 0.452319
vt 0.796622 0.486892
vt 0.377065 0.607311
vt 0.391479 0.449095
vt 0.834628 0.489546
vt 0.272140 0.456108
vt 0.280875 0.613914
vt 0.545154 0.803694
vt 0.466974 0.802793
vt 0.067918 0.596750
vt 0.166895 0.450561
vt 0.195567 0.460878
vt 0.930818 0.169280
vt 0.868362 0.613404
vt 0.125909 0.623233
vt 0.869554 0.113655
vt 0.228776 0.463405
vt 0.897791 0.199243
vt 0.552400 0.976023
vt 0.196591 0.624746
vt 0.376112 0.801765
vt 0.466476 0.973415
vt 0.785981 0.078917
vt 0.700514 0.396149
vt 0.783889 0.394842
vt 0.894612 0.237288
vt 0.160791 0.121295
vt 0.935094 0.226549
vt 0.776334 0.418908
vt 0.708853 0.419995
vt 0.968849 0.279107
vt 0.930555 0.297540
vt 0.509367 0.294452
vt 0.538926 0.237574
vt 0.544530 0.171325
vt 0.785882 0.231044
vt 0.691515 0.080053
vt 0.608167 0.116935
vt 0.588952 0.207105
vt 0.694253 0.231833
vt 0.187143 0.200641
vt 0.105702 0.219215
vt 0.064310 0.146906
vt 0.197699 0.283515
vt 0.131783 0.298408
vt 0.111701 0.075093
vt 0.027193 0.162893
vt 0.260178 0.115037
vt 0.763846 0.816000
vt 0.270778 0.198049
vt 0.070360 0.325797
vt 0.592555 0.240715
vt 0.548373 0.306107
vt 0.033085 0.254324
vt 0.265220 0.281457
vt 0.195306 0.367019
vt 0.171164 0.374001
vt 0.390160 0.136375
vt 0.870003 0.349563
vt 0.827255 0.301443
vt 0.353317 0.211619
vt 0.125740 0.393084
vt 0.246971 0.362942
vt 0.331980 0.292365
vt 0.792293 0.389156
vt 0.777231 0.367357
vt 0.754410 0.352589
vt 0.771934 0.274490
vt 0.728617 0.352975
vt 0.708841 0.275166
vt 0.653188 0.303593
vt 0.706231 0.368482
vt 0.692052 0.390961
vt 0.867076 0.481196
vt 0.392305 0.119945
vt 0.612440 0.354580
vt 0.337101 0.072001
vt 0.566614 0.122273
vt 0.532646 0.145502
vt 0.486240 0.151654
vt 0.575171 0.089403
vt 0.439161 0.057428
vt 0.554924 0.057611
vt 0.885292 0.814070
vt 0.032325 0.793226
vt 0.777976 0.871934
vt 0.715476 0.930777
vt 0.684641 0.977584
vt 0.877473 0.868285
vt 0.973281 0.970722
vt 0.937893 0.921837
vt 0.320130 0.376184
vt 0.394950 0.316379
vt 0.342991 0.386746
vt 0.428226 0.242545
vt 0.021255 0.213001
vt 0.433484 0.201692
vt 0.775507 0.369634
vt 0.708087 0.370676
vt 0.278556 0.801281
vt 0.103273 0.798616
vt 0.185415 0.800128
vt 0.097894 0.969679
vt 0.030309 0.947712
vt 0.184581 0.970163
vt 0.618779 0.955601
vt 0.613930 0.800703
vt 0.763684 0.474965
vt 0.584651 0.590151
vt 0.468305 0.449168
vt 0.499250 0.441117
vt 0.755729 0.433159
vt 0.358975 0.128267
vt 0.094874 0.136409
vt 0.422571 0.147944
vt 0.180400 0.050870
vt 0.192534 0.117166
vt 0.297340 0.370510
vt 0.272736 0.365004
vt 0.147951 0.381370
vt 0.055124 0.128185
vt 0.292245 0.117220
vt 0.270653 0.052178
vt 0.481624 0.039379
vt 0.512779 0.039359
vt 0.372968 0.971678
vt 0.278500 0.970766
vt 0.221188 0.363749
vt 0.729937 0.433595
vt 0.983757 0.816373
vt 0.943927 0.620712
vn 0.747825 0.059436 0.661230
vn 0.627750 0.665283 0.404139
vn 0.215991 0.824571 0.522906
vn 0.289971 0.024742 0.956716
vn 0.141131 0.981970 0.125764
vn 0.436806 0.892745 0.110488
vn 0.630834 0.637783 -0.441906
vn 0.447236 0.890325 -0.085450
vn 0.147148 0.988531 -0.033960
vn 0.272636 -0.666807 0.693570
vn 0.690593 -0.525397 0.497031
vn 0.085632 0.782875 0.616258
vn -0.000848 -0.046126 0.998935
vn 0.088585 0.988271 0.124389
vn 0.238147 0.835350 -0.495456
vn 0.251148 -0.942881 0.218861
vn 0.558835 -0.816007 0.147771
vn 0.543612 -0.798911 -0.257347
vn 0.249240 -0.928718 -0.274522
vn 0.080302 0.996539 -0.021482
vn -0.032796 -0.680461 0.732051
vn 0.704948 0.040791 -0.708085
vn 0.303838 0.027123 -0.952338
vn 0.643828 -0.501797 -0.577655
vn 0.272414 -0.637392 -0.720779
vn -0.283489 -0.149498 0.947251
vn -0.002062 0.592000 0.805935
vn 0.075770 0.796463 -0.599922
vn -0.026460 -0.969501 0.243654
vn -0.354846 -0.612089 0.706705
vn -0.022854 -0.958557 -0.283984
vn 0.003403 -0.038975 -0.999234
vn -0.520609 -0.227040 0.823055
vn -0.190989 0.217475 0.957198
vn -0.190989 0.217475 0.957198
vn -0.112063 0.199706 0.973427
vn -0.024366 -0.657283 -0.753250
vn -0.409411 -0.887653 0.210843
vn -0.752852 0.447462 -0.482693
vn -0.752852 0.447462 0.482692
vn -0.565372 0.725000 0.393356
vn -0.565372 0.725000 -0.393356
vn -0.402554 -0.885105 -0.233537
vn -0.260082 -0.119663 -0.958143
vn -0.068304 0.529806 -0.845364
vn -0.741778 -0.614723 0.268109
vn -0.331350 -0.616717 -0.714050
vn -0.515808 -0.263152 -0.815287
vn -0.121482 0.217324 -0.968511
vn -0.746059 -0.616839 -0.250810
vn 0.836305 0.496581 0.232380
vn 0.483076 0.819235 0.309018
vn 0.273793 0.539851 0.795989
vn 0.624628 0.350784 0.697704
vn 0.000254 0.964678 0.263431
vn -0.149020 0.678218 0.719593
vn 0.969188 0.187255 0.160034
vn 0.729800 -0.181744 0.659060
vn 0.190930 0.973480 0.126023
vn 0.179340 0.970890 0.158776
vn 0.837216 0.499530 -0.222572
vn 0.483076 0.819235 -0.309017
vn -0.392237 0.268312 0.879863
vn 0.000253 0.964678 -0.263430
vn 0.155070 0.986973 -0.042861
vn -0.427500 0.890911 0.153371
vn 0.618223 0.371879 -0.692464
vn 0.272854 0.544310 -0.793270
vn -0.427500 0.890911 -0.153371
vn 0.125592 0.987723 -0.092894
vn -0.691375 -0.116107 0.713106
vn -0.149021 0.678218 -0.719593
vn 0.715654 -0.166101 -0.678417
vn 0.969526 0.207828 -0.129718
vn -0.905234 0.164790 0.391657
vn -0.986044 -0.034910 0.162784
vn -0.889276 -0.342979 0.302578
vn -0.392318 0.279105 -0.876463
vn -0.986044 -0.034910 -0.162784
vn -0.904169 -0.327621 -0.274124
vn -0.705083 -0.081217 -0.704459
vn -0.905234 0.164790 -0.391657
vn 0.309489 0.224193 0.924096
vn 0.304631 0.234631 -0.923119
vn 0.566199 -0.023072 -0.823946
vn 0.576608 -0.032060 0.816392
s 1
g baby
usemtl initialShadingGroup
f 3/117/1 1/118/2 2/116/3 4/4/4
f 5/5/5 2/3/3 1/115/2 6/9/6
f 1/2/2 12/85/7 8/86/8 6/87/6
f 5/5/5 6/9/6 8/12/8 13/21/9
f 3/117/1 4/4/4 9/6/10 7/8/11
f 4/4/4 2/116/3 11/114/12 19/15/13
f 2/3/3 5/5/5 16/56/14 11/7/12
f 13/21/9 8/12/8 12/81/7 21/138/15
f 18/10/16 10/11/17 7/8/11 9/6/10
f 14/13/18 10/11/17 18/10/16 22/14/19
f 16/56/14 5/5/5 13/21/9 26/91/20
f 20/16/21 9/6/10 4/4/4 19/15/13
f 21/17/15 12/18/7 15/19/22 24/22/23
f 17/24/24 14/13/18 22/14/19 23/27/25
f 15/19/22 17/24/24 23/27/25 24/22/23
f 25/26/26 19/15/13 11/114/12 31/113/27
f 26/91/20 13/21/9 21/138/15 29/137/28
f 27/28/29 18/10/16 9/6/10 20/16/21
f 28/29/30 20/16/21 19/15/13 25/26/26
f 22/14/19 18/10/16 27/28/29 32/107/31
f 29/92/28 21/17/15 24/22/23 34/108/32
f 30/33/33 25/35/34 31/38/35 64/39/36
f 23/27/25 22/14/19 32/107/31 33/109/37
f 24/22/23 23/27/25 33/109/37 34/108/32
f 35/133/38 27/28/29 20/16/21 28/29/30
f 43/31/39 38/32/40 36/36/41 41/37/42
f 32/107/31 27/28/29 35/133/38 48/134/43
f 29/92/28 34/108/32 46/110/44 50/111/45
f 28/23/30 47/43/46 35/30/38
f 33/109/37 32/107/31 48/134/43 49/112/47
f 34/108/32 33/109/37 49/112/47 46/110/44
f 50/40/45 46/41/44 51/59/48 74/60/49
f 48/44/43 35/30/38 47/43/46 52/47/50
f 52/47/50 49/45/47 48/44/43
f 53/34/51 54/48/52 55/49/53 56/121/54
f 54/48/52 57/51/55 58/52/56 55/49/53
f 59/53/57 56/121/54 60/128/58
f 16/56/14 59/93/59 60/94/60 31/95/27 11/7/12
f 61/55/61 62/57/62 54/48/52 53/124/51
f 55/49/53 58/52/56 63/58/63 64/61/36
f 62/57/62 65/62/64 57/51/55 54/48/52
f 26/91/20 66/96/65 59/93/59 16/56/14
f 57/51/55 37/63/66 36/64/41 58/52/56
f 67/120/67 68/68/68 62/57/62 61/129/61
f 58/52/56 36/127/41 38/69/40 63/58/63
f 65/62/64 39/70/69 37/135/66 57/51/55
f 66/96/65 26/91/20 29/137/28 50/97/45 71/98/70
f 64/39/36 63/66/63 69/67/71 30/33/33
f 68/68/68 70/71/72 65/62/64 62/57/62
f 25/20/26 30/25/33 47/43/46 28/23/30
f 71/82/73 67/120/67 66/84/74
f 63/66/63 38/72/40 40/73/75 69/67/71
f 70/71/72 41/125/42 39/126/69 65/62/64
f 69/67/71 40/73/75 42/74/76 72/75/77
f 73/100/78 43/101/39 41/99/42 70/71/72
f 74/102/49 73/100/78 70/71/72 68/68/68
f 72/75/77 42/74/76 44/76/79 75/77/80
f 76/78/81 45/79/82 43/80/39 73/83/78
f 75/77/80 44/76/79 45/79/82 76/78/81
f 52/47/50 47/43/46 72/75/77 75/77/80
f 51/59/48 76/78/81 73/83/78 74/60/49
f 59/53/57 53/34/51 56/121/54
f 66/130/74 61/55/61 53/124/51 59/123/57
f 66/84/74 67/120/67 61/129/61
f 56/50/54 55/49/53 64/61/36 31/103/83
f 50/104/84 67/65/67 71/122/85
f 75/77/80 76/78/81 51/59/48 52/47/50
f 56/50/54 31/103/83 60/54/86
f 50/104/84 74/102/49 68/68/68 67/65/67
f 51/46/48 46/42/44 49/45/47 52/47/50
f 69/67/71 72/75/77 47/43/46 30/33/33
f 44/76/79 42/74/76 40/105/75 45/106/82
f 45/106/82 40/105/75 38/32/40 43/31/39
f 41/37/42 36/36/41 37/119/66 39/136/69
f 15/88/22 3/1/1 7/89/11 17/90/24
f 15/88/22 12/85/7 1/2/2 3/1/1
f 17/90/24 7/89/11 10/131/17 14/132/18
