# This file uses centimeters as units for non-parametric coordinates.

mtllib Piramide.mtl
g default
v -7.500000 0.000000 7.500002
v 7.500000 0.000000 7.500002
v -6.499300 2.219434 6.499296
v 6.499293 2.219434 6.499296
v -6.499300 2.219434 -6.499293
v 6.499293 2.219434 -6.499293
v -7.500000 0.000000 -7.500004
v 7.500000 0.000000 -7.500007
v -5.849365 2.219434 5.849365
v 5.849364 2.219434 5.849365
v 5.849364 2.219434 -5.849359
v -5.849365 2.219434 -5.849359
v -4.971971 4.030211 4.971964
v 4.971960 4.030211 4.971964
v 4.971960 4.030211 -4.971966
v -4.971971 4.030211 -4.971966
v -4.325611 4.030211 4.325607
v 4.325604 4.030211 4.325607
v 4.325604 4.030211 -4.325607
v -4.325611 4.030211 -4.325607
v -3.460489 5.740307 3.460489
v 3.460484 5.740307 3.460489
v 3.460484 5.740307 -3.460487
v -3.460489 5.740307 -3.460487
v -2.883743 5.740307 2.883740
v 2.883734 5.740307 2.883740
v 2.883734 5.740307 -2.883738
v -2.883743 5.740307 -2.883738
v -2.114746 7.555623 2.114744
v 2.114737 7.555623 2.114744
v 2.114737 7.555623 -2.114740
v -2.114746 7.555623 -2.114740
v 2.114737 7.555623 0.948116
v 2.883734 5.740307 0.948116
v 3.460484 5.740307 0.948118
v 4.325604 4.030211 0.948120
v 4.971960 4.030211 0.948120
v 5.849364 2.219434 0.948122
v 6.499293 2.219434 0.948124
v 7.500000 0.000000 0.948126
v 7.500000 0.000000 -0.948126
v 6.499293 2.219434 -0.948124
v 5.849364 2.219434 -0.948124
v 4.971960 4.030211 -0.948120
v 4.325604 4.030211 -0.948118
v 3.460484 5.740307 -0.948118
v 2.883734 5.740307 -0.948118
v 2.114737 7.555623 -0.948116
v 7.301961 0.000000 -0.864460
v 7.301961 0.000000 0.864460
v 6.400273 2.066169 -0.864458
v 6.400273 2.066169 0.864458
v 5.751615 2.063451 -0.864458
v 5.751615 2.063451 0.864456
v 4.874211 3.874228 -0.864454
v 4.874211 3.874228 0.864454
v 4.228682 3.872560 -0.864454
v 4.228682 3.872560 0.864454
v 3.363560 5.582656 -0.864454
v 3.363560 5.582656 0.864454
v 2.783719 5.589320 -0.864454
v 2.783719 5.589320 0.864452
v 1.903264 7.555623 -0.869413
v 1.903264 7.555623 0.869415
v -2.114746 7.555623 0.869415
v -2.114746 7.555623 -0.869411
v -1.110242 7.555623 -0.869411
v -1.110242 7.555623 0.869415
v 0.898762 7.555623 0.869415
v 0.898760 7.555623 -0.869411
v 0.731345 9.011543 0.724514
v -0.942825 9.011543 0.724514
v 0.731343 9.011543 -0.724510
v -0.942825 9.011543 -0.724510
v 0.748875 8.868967 -0.579609
v 0.748877 8.868967 0.579613
v -0.960357 8.868967 0.579613
v -0.960357 8.868967 -0.579609
v 0.593924 8.868967 0.737721
v -0.805404 8.868967 0.737721
v -0.805404 8.868967 -0.737717
v 0.593922 8.868967 -0.737717
v -1.110321 7.555624 -0.695528
v -1.110321 7.555624 0.695534
v -0.927339 7.555623 -0.869411
v 0.715859 7.555623 -0.869411
v 0.898760 7.555623 -0.695530
v 0.898762 7.555623 0.695534
v 0.715857 7.555623 0.869415
v -0.927339 7.555623 0.869415
v -0.808694 8.868967 -0.595785
v 0.597210 8.868967 -0.595785
v 0.597212 8.868967 0.595789
v -0.808694 8.868967 0.595789
v -0.931667 7.555623 -0.707775
v 0.720147 7.555623 -0.707775
v 0.720147 7.555623 0.707779
v -0.931667 7.555623 0.707779
vt 0.487298 0.025090
vt 0.036879 0.044744
vt 0.957585 0.027694
vt 0.067842 0.124559
vt 0.925787 0.103850
vt 0.455950 0.384239
vt 0.476271 0.732657
vt 0.068725 0.730406
vt 0.487108 0.307735
vt 0.518250 0.101595
vt 0.905298 0.124115
vt 0.538514 0.122085
vt 0.088445 0.146054
vt 0.435247 0.404628
vt 0.877440 0.187048
vt 0.565674 0.185322
vt 0.115915 0.210875
vt 0.406618 0.467093
vt 0.857063 0.207201
vt 0.585826 0.205699
vt 0.136274 0.231698
vt 0.386163 0.486825
vt 0.829607 0.267137
vt 0.612617 0.265936
vt 0.163499 0.291891
vt 0.357897 0.544750
vt 0.811425 0.285119
vt 0.630600 0.284118
vt 0.181549 0.309797
vt 0.339781 0.561713
vt 0.534416 0.963827
vt 0.493549 0.831769
vt 0.205969 0.370958
vt 0.314243 0.620692
vt 0.530123 0.831265
vt 0.242153 0.370821
vt 0.242684 0.308961
vt 0.240645 0.292173
vt 0.243454 0.233072
vt 0.242642 0.213424
vt 0.246261 0.150003
vt 0.245978 0.129718
vt 0.249904 0.051604
vt 0.946424 0.625857
vt 0.282028 0.384239
vt 0.281183 0.404009
vt 0.282912 0.465980
vt 0.281563 0.485122
vt 0.282627 0.542860
vt 0.280167 0.559178
vt 0.278929 0.619530
vt 0.893074 0.630457
vt 0.275219 0.311058
vt 0.276818 0.382531
vt 0.892026 0.697865
vt 0.275192 0.402414
vt 0.891659 0.717520
vt 0.277763 0.464533
vt 0.891097 0.778981
vt 0.275689 0.483538
vt 0.890897 0.798932
vt 0.277580 0.541272
vt 0.890694 0.858576
vt 0.274668 0.557010
vt 0.890650 0.876686
vt 0.272563 0.621901
vt 0.890460 0.944041
vt 0.532682 0.837861
vt 0.533115 0.869353
vt 0.588496 0.931585
vt 0.627971 0.962541
vt 0.750694 0.862871
vt 0.693411 0.346278
vt 0.803180 0.863540
vt 0.533983 0.932335
vt 0.802601 0.908968
vt 0.750116 0.908298
vt 0.807162 0.904482
vt 0.812615 0.953827
vt 0.807270 0.954910
vt 0.807626 0.868140
vt 0.807948 0.912479
vt 0.805629 0.849284
vt 0.745347 0.859356
vt 0.747667 0.922549
vt 0.806724 0.858424
vt 0.736227 0.860599
vt 0.746572 0.913413
vt 0.817066 0.911233
vt 0.583044 0.931663
vt 0.740693 0.818004
vt 0.705254 0.917894
vt 0.823159 0.952351
vt 0.846822 0.843378
vt 0.539434 0.932263
vt 0.848052 0.853955
vt 0.730147 0.819476
vt 0.747480 0.917771
vt 0.812620 0.911454
vt 0.805817 0.854065
vt 0.740674 0.860379
vt 0.706286 0.922857
vt 0.818095 0.952605
vt 0.847021 0.848990
vt 0.735211 0.819224
vt 0.489785 0.366104
vt 0.960076 0.368698
vt 0.928280 0.444857
vt 0.520739 0.442609
vt 0.907791 0.465122
vt 0.541004 0.463098
vt 0.879934 0.528057
vt 0.568163 0.526337
vt 0.859557 0.548209
vt 0.588317 0.546713
vt 0.832101 0.608147
vt 0.615110 0.606949
vt 0.813919 0.626130
vt 0.633092 0.625132
vt 0.495375 0.964365
vt 0.037770 0.653900
vt 0.508067 0.656498
vt 0.455781 0.752923
vt 0.088989 0.750896
vt 0.427923 0.815858
vt 0.116149 0.814135
vt 0.407546 0.836011
vt 0.136302 0.834512
vt 0.380090 0.895949
vt 0.163094 0.894750
vt 0.361907 0.913932
vt 0.181078 0.912933
vt 0.626147 0.829942
vt 0.587195 0.837109
vt 0.587629 0.868602
vt 0.582178 0.868677
vt 0.538567 0.869278
vt 0.533195 0.875087
vt 0.533904 0.926601
vt 0.589572 0.830445
vt 0.588417 0.925851
vt 0.587708 0.874336
vt 0.582639 0.874271
vt 0.538260 0.874883
vt 0.538973 0.926667
vt 0.849191 0.859577
vt 0.849123 0.865030
vt 0.746133 0.867356
vt 0.746038 0.816923
vt 0.745669 0.903699
vt 0.704114 0.912273
vt 0.704181 0.906821
vt 0.798929 0.858996
vt 0.755061 0.858437
vt 0.751773 0.816998
vt 0.754367 0.912842
vt 0.798236 0.913402
vt 0.801535 0.954838
vt 0.248599 0.373444
vt 0.248383 0.306903
vt 0.944602 0.876682
vt 0.944802 0.944041
vt 0.245858 0.290698
vt 0.944545 0.858574
vt 0.249516 0.231625
vt 0.944316 0.798993
vt 0.247959 0.212096
vt 0.944160 0.779115
vt 0.252441 0.148548
vt 0.944076 0.717822
vt 0.251426 0.128176
vt 0.944000 0.698288
vt 0.256252 0.054622
vt 0.944326 0.630927
vt 0.890753 0.624580
vt 0.281505 0.308402
vt 0.706487 0.928468
vt 0.583351 0.926057
vt 0.588929 0.963077
vt 0.654366 0.346062
vt 0.337455 0.975613
vt 0.747928 0.346580
vt 0.656861 0.687076
vt 0.786973 0.346796
vt 0.204846 0.974879
vt 0.789468 0.687808
vn 0.000000 0.411034 0.911620
vn 0.000000 0.411034 0.911620
vn 0.000000 0.411034 0.911620
vn 0.000000 0.411034 0.911620
vn 0.000000 1.000000 -0.000000
vn 0.000000 1.000000 0.000000
vn 0.000000 1.000000 0.000000
vn 0.000000 1.000000 -0.000000
vn -0.000000 0.411036 -0.911619
vn -0.000000 0.411036 -0.911619
vn -0.000000 0.411036 -0.911619
vn -0.000000 0.411036 -0.911619
vn 0.916525 0.399977 0.000000
vn 0.916525 0.399977 0.000000
vn 0.916525 0.399977 0.000000
vn 0.916525 0.399977 0.000000
vn -0.911621 0.411032 0.000000
vn -0.911621 0.411032 0.000000
vn -0.911621 0.411032 0.000000
vn -0.911621 0.411032 0.000000
vn 0.000000 1.000000 -0.000000
vn 0.000000 1.000000 -0.000000
vn 0.000000 1.000000 -0.000000
vn 0.000000 1.000000 -0.000000
vn -0.004189 0.999991 0.000000
vn -0.004189 0.999991 0.000000
vn -0.004189 0.999991 0.000000
vn -0.004189 0.999991 0.000000
vn 0.000000 1.000000 -0.000000
vn 0.000000 1.000000 -0.000000
vn 0.000000 1.000000 -0.000000
vn 0.000000 1.000000 -0.000000
vn 0.000000 0.436052 0.899922
vn 0.000000 0.436052 0.899922
vn 0.000000 0.436052 0.899922
vn 0.000000 0.436052 0.899922
vn 0.899921 0.436053 0.000000
vn 0.899921 0.436053 0.000000
vn 0.899921 0.436053 0.000000
vn 0.899921 0.436053 0.000000
vn 0.000000 0.436049 -0.899923
vn 0.000000 0.436049 -0.899923
vn 0.000000 0.436049 -0.899923
vn 0.000000 0.436049 -0.899923
vn -0.899923 0.436049 0.000000
vn -0.899923 0.436049 0.000000
vn -0.899923 0.436049 0.000000
vn -0.899923 0.436049 0.000000
vn 0.000000 1.000000 -0.000000
vn 0.000000 1.000000 -0.000000
vn 0.000000 1.000000 -0.000000
vn 0.000000 1.000000 -0.000000
vn -0.002585 0.999997 0.000000
vn -0.002585 0.999997 0.000000
vn -0.002585 0.999997 0.000000
vn -0.002585 0.999997 0.000000
vn 0.000000 1.000000 0.000001
vn 0.000000 1.000000 0.000000
vn 0.000000 1.000000 0.000000
vn 0.000000 1.000000 0.000001
vn 0.000000 0.451412 0.892316
vn 0.000000 0.451412 0.892316
vn 0.000000 0.451412 0.892316
vn 0.000000 0.451412 0.892316
vn 0.892315 0.451414 0.000000
vn 0.892315 0.451414 0.000000
vn 0.892315 0.451414 0.000000
vn 0.892315 0.451414 0.000000
vn 0.000000 0.451413 -0.892315
vn 0.000000 0.451413 -0.892315
vn 0.000000 0.451413 -0.892315
vn 0.000000 0.451413 -0.892315
vn -0.892315 0.451413 0.000000
vn -0.892315 0.451413 0.000000
vn -0.892315 0.451413 0.000000
vn -0.892315 0.451413 0.000000
vn 0.000000 1.000000 -0.000000
vn 0.000000 1.000000 -0.000000
vn 0.000000 1.000000 -0.000000
vn 0.000000 1.000000 -0.000000
vn 0.011492 0.999934 0.000000
vn 0.011492 0.999934 0.000000
vn 0.011492 0.999934 0.000000
vn 0.011492 0.999934 0.000000
vn 0.000000 1.000000 0.000000
vn 0.000000 1.000000 0.000000
vn 0.000000 1.000000 0.000000
vn 0.000000 1.000000 0.000000
vn 0.000000 0.390060 0.920789
vn 0.000000 0.390060 0.920789
vn 0.000000 0.390060 0.920789
vn 0.000000 0.390060 0.920789
vn 0.912681 0.408673 0.000000
vn 0.912681 0.408673 0.000000
vn 0.912681 0.408673 0.000000
vn 0.912681 0.408673 0.000000
vn 0.000000 0.390061 -0.920789
vn 0.000000 0.390061 -0.920789
vn 0.000000 0.390061 -0.920789
vn 0.000000 0.390061 -0.920789
vn -0.920789 0.390061 0.000000
vn -0.920789 0.390061 0.000000
vn -0.920789 0.390062 0.000000
vn 0.920789 0.390061 0.000000
vn 0.920789 0.390061 0.000000
vn 0.920789 0.390061 0.000000
vn 0.920789 0.390061 0.000000
vn 0.000000 1.000000 0.000000
vn 0.000000 1.000000 0.000000
vn 0.892315 0.451413 0.000000
vn 0.892315 0.451413 0.000000
vn 0.892315 0.451413 0.000000
vn 0.892315 0.451413 0.000000
vn 0.000000 1.000000 0.000000
vn 0.000000 1.000000 0.000000
vn 0.899921 0.436053 0.000000
vn 0.899921 0.436053 0.000000
vn 0.899921 0.436053 0.000000
vn 0.899921 0.436053 0.000000
vn 0.000000 1.000000 0.000000
vn 0.000000 1.000000 0.000000
vn 0.911620 0.411035 0.000000
vn 0.911620 0.411035 0.000000
vn 0.911620 0.411035 0.000000
vn 0.911620 0.411035 0.000000
vn 0.911620 0.411035 -0.000000
vn 0.911620 0.411035 -0.000000
vn 0.911620 0.411035 -0.000000
vn 0.911620 0.411035 -0.000000
vn 0.000000 1.000000 0.000000
vn 0.000000 1.000000 0.000000
vn 0.899921 0.436053 0.000000
vn 0.899921 0.436053 0.000000
vn 0.899921 0.436053 0.000000
vn 0.899921 0.436053 0.000000
vn 0.000000 1.000000 0.000000
vn 0.000000 1.000000 0.000000
vn 0.892315 0.451414 0.000000
vn 0.892315 0.451413 0.000000
vn 0.892315 0.451413 0.000000
vn 0.892315 0.451413 0.000000
vn 0.000000 1.000000 0.000000
vn 0.000000 1.000000 0.000000
vn 0.920789 0.390060 0.000000
vn 0.920789 0.390060 0.000000
vn 0.920789 0.390060 0.000000
vn 0.920789 0.390060 0.000000
vn 0.000000 1.000000 0.000000
vn 0.000000 1.000000 0.000000
vn 0.000000 1.000000 0.000000
vn 0.000000 1.000000 0.000000
vn 0.409693 0.181868 0.893910
vn 0.331823 0.248005 0.910158
vn 0.332036 0.247831 0.910127
vn 0.409693 0.181868 0.893910
vn 0.331823 0.248005 -0.910158
vn 0.409693 0.181868 -0.893911
vn 0.409693 0.181868 -0.893911
vn 0.332036 0.247831 -0.910127
vn 0.329779 0.278250 0.902121
vn 0.330043 0.278061 0.902083
vn 0.329772 0.278250 -0.902124
vn 0.330036 0.278062 -0.902085
vn 0.329305 0.277157 0.902631
vn 0.329221 0.277216 0.902643
vn 0.329297 0.277160 -0.902633
vn 0.329213 0.277219 -0.902645
vn 0.320475 0.283310 0.903898
vn 0.320639 0.283196 0.903875
vn 0.320473 0.283313 -0.903898
vn 0.320637 0.283199 -0.903875
vn 0.330126 0.278097 0.902042
vn 0.330475 0.277847 0.901991
vn 0.330126 0.278098 -0.902041
vn 0.330474 0.277848 -0.901991
vn 0.316043 0.238121 0.918376
vn 0.316421 0.237787 0.918333
vn 0.316044 0.238120 -0.918377
vn 0.316421 0.237785 -0.918333
vn 0.389031 0.170875 0.905239
vn 0.389030 0.170875 0.905239
vn 0.389030 0.170875 -0.905239
vn 0.389030 0.170875 -0.905239
vn 0.000000 1.000000 0.000000
vn 0.000000 1.000000 0.000000
vn 0.000000 1.000000 0.000000
vn 0.000000 1.000000 0.000000
vn 0.000000 1.000000 0.000000
vn 0.000000 1.000000 0.000000
vn 0.000000 1.000000 0.000000
vn -0.920789 0.390061 0.000000
vn -0.920789 0.390061 0.000000
vn -0.920789 0.390061 0.000000
vn -0.000000 1.000000 0.000000
vn -0.000000 1.000000 0.000000
vn -0.000000 1.000000 0.000000
vn -0.000000 1.000000 0.000000
vn -0.000000 1.000000 0.000000
vn -0.000000 1.000000 0.000000
vn 0.000000 1.000000 0.000000
vn 0.000000 1.000000 0.000000
vn 0.000000 1.000000 0.000000
vn 0.000000 1.000000 0.000000
vn 0.000000 1.000000 0.000000
vn 0.000000 1.000000 0.000000
vn 0.000000 1.000000 -0.000000
vn 0.000000 1.000000 -0.000000
vn 0.000000 1.000000 -0.000000
vn 0.000000 1.000000 -0.000000
vn 0.000000 1.000000 0.000000
vn 0.000000 1.000000 0.000000
vn 0.000000 1.000000 0.000000
vn 0.000000 1.000000 0.000000
vn 0.000000 1.000000 0.000000
vn 0.000000 1.000000 0.000000
vn 0.000000 1.000000 0.000000
vn 0.993039 0.117773 -0.001941
vn 0.993455 0.114167 -0.003577
vn 0.993455 0.114167 -0.003577
vn 0.993077 0.117443 -0.002090
vn 0.993078 0.117443 0.002089
vn 0.993039 0.117773 0.001939
vn 0.993455 0.114167 0.003577
vn 0.993455 0.114167 0.003577
vn -0.993035 0.117798 0.002060
vn -0.993449 0.114214 0.003799
vn -0.993449 0.114214 0.003799
vn -0.993074 0.117470 0.002219
vn -0.993074 0.117471 -0.002219
vn -0.993035 0.117799 -0.002060
vn -0.993449 0.114216 -0.003799
vn -0.993449 0.114216 -0.003799
vn -0.001563 0.095713 0.995408
vn -0.003071 0.099068 0.995076
vn -0.003071 0.099068 0.995076
vn -0.001646 0.095898 0.995390
vn 0.001644 0.095899 0.995390
vn 0.001561 0.095713 0.995408
vn 0.003067 0.099069 0.995076
vn 0.003067 0.099069 0.995076
vn 0.001561 0.095713 -0.995408
vn 0.003067 0.099069 -0.995076
vn 0.003067 0.099069 -0.995076
vn 0.001644 0.095899 -0.995390
vn -0.001644 0.095898 -0.995390
vn -0.001561 0.095713 -0.995408
vn -0.003067 0.099068 -0.995076
vn -0.003067 0.099068 -0.995076
vn -0.995160 -0.095075 -0.024842
vn -0.995160 -0.095075 -0.024842
vn -0.995160 -0.095075 -0.024842
vn -0.995160 -0.095075 -0.024842
vn 0.085338 -0.094926 -0.991820
vn 0.085338 -0.094926 -0.991820
vn 0.085338 -0.094926 -0.991820
vn 0.085338 -0.094926 -0.991820
vn 0.995154 -0.095103 0.024973
vn 0.995154 -0.095103 0.024973
vn 0.995154 -0.095103 0.024973
vn 0.995154 -0.095103 0.024973
vn -0.085340 -0.094922 0.991820
vn -0.085340 -0.094922 0.991820
vn -0.085340 -0.094922 0.991820
vn -0.085340 -0.094922 0.991820
vn 0.000000 1.000000 0.000000
vn 0.000000 1.000000 0.000000
vn 0.000000 1.000000 0.000001
vn 0.000000 1.000000 0.000001
vn 0.000000 1.000000 0.000000
vn 0.000000 1.000000 0.000000
vn 0.000000 1.000000 0.000000
vn 0.000000 1.000000 0.000000
vn 0.000000 1.000000 0.000003
vn 0.000000 1.000000 0.000003
vn 0.000003 1.000000 0.000000
vn 0.000003 1.000000 0.000000
vn 0.085330 -0.094925 0.991821
vn 0.085330 -0.094925 0.991821
vn 0.085330 -0.094925 0.991821
vn 0.085330 -0.094925 0.991821
vn -0.995160 -0.095077 0.024835
vn -0.995160 -0.095077 0.024835
vn -0.995160 -0.095077 0.024835
vn -0.995160 -0.095077 0.024835
vn -0.085339 -0.094923 -0.991820
vn -0.085339 -0.094923 -0.991820
vn -0.085339 -0.094923 -0.991820
vn -0.085339 -0.094923 -0.991820
vn 0.995154 -0.095103 -0.024973
vn 0.995154 -0.095103 -0.024973
vn 0.995154 -0.095103 -0.024973
vn 0.995154 -0.095103 -0.024973
s off
g pira fatt
usemtl initialShadingGroup
f 1/106/1 2/107/2 4/108/3 3/109/4
s 1
f 30/32/5 33/35/6 64/68/7 69/69/8
s off
f 5/7/9 6/8/10 8/121/11 7/122/12
f 50/52/13 49/174/14 51/172/15 52/55/16
f 7/1/17 1/3/18 3/5/19 5/10/20
s 2
f 3/109/21 4/108/22 10/110/23 9/111/24
s off
f 51/172/25 53/170/26 54/57/27 52/55/28
s 2
f 6/8/29 5/7/30 12/123/31 11/124/32
f 5/10/30 3/5/21 9/11/24 12/12/31
s off
f 9/111/33 10/110/34 14/112/35 13/113/36
f 53/170/37 55/168/38 56/59/39 54/57/40
f 11/124/41 12/123/42 16/125/43 15/126/44
f 12/12/45 9/11/46 13/15/47 16/16/48
s 3
f 13/113/49 14/112/50 18/114/51 17/115/52
s off
f 55/168/53 57/166/54 58/61/55 56/59/56
s 3
f 15/126/57 16/125/58 20/127/59 19/128/60
f 16/16/58 13/15/49 17/19/52 20/20/59
s off
f 17/115/61 18/114/62 22/116/63 21/117/64
f 57/166/65 59/164/66 60/63/67 58/61/68
f 19/128/69 20/127/70 24/129/71 23/130/72
f 20/20/73 17/19/74 21/23/75 24/24/76
s 4
f 21/117/77 22/116/78 26/118/79 25/119/80
s off
f 59/164/81 61/161/82 62/65/83 60/63/84
s 4
f 23/130/85 24/129/86 28/131/87 27/132/88
f 24/24/86 21/23/77 25/27/80 28/28/87
s off
f 25/119/89 26/118/90 30/186/91 29/183/92
f 61/161/93 63/162/94 64/67/95 62/65/96
f 27/132/97 28/131/98 32/181/99 31/185/100
s 5
f 65/182/101 25/27/102 29/184/103
s off
f 34/37/104 33/36/105 30/33/106 26/29/107
s 4
f 35/38/108 34/37/109 26/29/79 22/25/78
s off
f 36/39/110 35/38/111 22/25/112 18/21/113
s 3
f 37/40/114 36/39/115 18/21/51 14/17/50
s off
f 38/41/116 37/40/117 14/17/118 10/13/119
s 2
f 39/42/120 38/41/121 10/13/23 4/4/22
s off
f 2/2/122 40/43/123 39/42/124 4/4/125
f 6/6/126 42/45/127 41/176/128 8/9/129
s 2
f 11/14/32 43/46/130 42/45/131 6/6/29
s off
f 15/18/132 44/47/133 43/46/134 11/14/135
s 3
f 19/22/60 45/48/136 44/47/137 15/18/57
s off
f 23/26/138 46/49/139 45/48/140 19/22/141
s 4
f 27/30/88 47/50/142 46/49/143 23/26/85
s off
f 31/34/144 48/51/145 47/50/146 27/30/147
f 40/175/148 41/44/149 49/174/150 50/52/151
s 6
f 41/176/152 42/45/153 51/54/154 49/53/155
s 7
f 39/42/156 40/43/157 50/173/158 52/171/159
s 6
f 42/45/153 43/46/160 53/56/161 51/54/154
s 7
f 38/41/162 39/42/156 52/171/159 54/169/163
s 6
f 43/46/160 44/47/164 55/58/165 53/56/161
s 7
f 37/40/166 38/41/162 54/169/163 56/167/167
s 6
f 44/47/164 45/48/168 57/60/169 55/58/165
s 7
f 36/39/170 37/40/166 56/167/167 58/165/171
s 6
f 45/48/168 46/49/172 59/62/173 57/60/169
s 7
f 35/38/174 36/39/170 58/165/171 60/163/175
s 6
f 46/49/172 47/50/176 61/64/177 59/62/173
s 7
f 34/37/178 35/38/174 60/163/175 62/160/179
s 6
f 47/50/176 48/51/180 63/66/181 61/64/177
s 7
f 33/36/182 34/37/178 62/160/179 64/159/183
s 8
f 67/70/184 32/71/185 66/179/186
s off
f 72/72/187 71/74/188 73/76/189 74/77/190
s 5
f 28/28/191 25/27/102 65/182/101 66/73/192
f 28/28/191 66/73/192 32/180/193
s off
f 68/75/194 84/95/195 83/90/196 67/70/197 66/179/198 65/31/199
f 63/134/200 70/135/201 87/136/202 88/137/203 69/69/204 64/68/205
s 1
f 30/32/5 69/69/8 89/138/206 90/139/207 68/75/208 29/120/209
s 8
f 31/133/210 70/135/211 63/134/212 48/140/213
f 31/133/210 32/71/185 67/70/184 85/141/214 86/142/215 70/135/211
s 1
f 29/120/209 68/75/208 65/31/216
s 9
f 75/82/217 87/79/218 70/80/219 73/76/220
f 73/76/220 71/74/221 76/81/222 75/78/217
f 76/81/222 71/74/221 69/146/223 88/147/224
s 10
f 77/84/225 84/91/226 68/149/227 72/72/228
f 72/72/228 74/77/229 78/150/230 77/148/225
f 78/150/230 74/77/229 67/151/231 83/152/232
s 11
f 79/86/233 89/96/234 69/146/235 71/74/236
f 71/74/236 72/72/237 80/154/238 79/153/233
f 80/154/238 72/72/237 68/149/239 90/155/240
s 12
f 81/88/241 85/92/242 67/151/243 74/77/244
f 74/77/244 73/76/245 82/157/246 81/156/241
f 82/157/246 73/76/245 70/80/247 86/158/248
s off
f 79/86/249 93/100/250 97/104/251 89/96/252
f 94/101/253 98/105/254 84/91/255 77/84/256
f 81/88/257 91/98/258 95/102/259 85/92/260
f 92/99/261 96/103/262 87/79/263 75/82/264
s 13
f 95/178/265 96/143/266 86/142/267 85/141/268
f 96/143/266 97/144/269 88/137/270 87/136/271
f 97/144/269 98/145/272 90/139/273 89/138/274
f 84/95/275 98/145/272 95/178/265 83/90/276
f 95/178/265 98/145/272 97/144/269 96/143/266
s off
f 95/102/277 91/98/278 78/85/279 83/177/280
f 82/89/281 86/93/282 96/103/283 92/99/284
f 97/104/285 93/100/286 76/83/287 88/94/288
f 80/87/289 90/97/290 98/105/291 94/101/292
