# This file uses centimeters as units for non-parametric coordinates.

mtllib Lingotti.mtl
g default
v 0.400922 0.298167 -0.084875
v 0.405116 0.291495 -0.087225
v 0.402042 0.292144 -0.094257
v 0.394572 0.292807 -0.097149
v 0.393607 0.298643 -0.092056
v 0.393513 0.300885 -0.084237
v -0.400922 0.298167 -0.084875
v -0.393513 0.300885 -0.084237
v -0.393534 0.298602 -0.092080
v -0.394442 0.292680 -0.097204
v -0.402001 0.292080 -0.094294
v -0.405116 0.291495 -0.087225
v 0.402056 0.292107 0.094245
v 0.405133 0.291424 0.087177
v 0.400931 0.298142 0.084846
v 0.393513 0.300885 0.084237
v 0.393607 0.298643 0.092056
v 0.394572 0.292807 0.097149
v -0.402056 0.292107 0.094245
v -0.394572 0.292807 0.097149
v -0.393646 0.298640 0.092080
v -0.393587 0.300885 0.084311
v -0.400956 0.298137 0.084887
v -0.405133 0.291424 0.087177
v 0.438836 0.150443 -0.148787
v 0.428504 0.150443 -0.159765
v 0.435810 0.150443 -0.156550
v -0.438836 0.150443 -0.148787
v -0.435810 0.150443 -0.156550
v -0.428504 0.150443 -0.159765
v 0.438836 0.150443 0.148787
v 0.435810 0.150443 0.156550
v 0.428504 0.150443 0.159765
v -0.438836 0.150443 0.148787
v -0.428504 0.150443 0.159765
v -0.435810 0.150443 0.156550
v 0.399721 0.297294 -0.091056
v -0.399688 0.297265 -0.091077
v 0.399730 0.297275 0.091043
v -0.399748 0.297271 0.091062
v 0.400922 0.147725 0.074890
v 0.405116 0.141053 0.072540
v 0.402042 0.141702 0.065508
v 0.394572 0.142364 0.062616
v 0.393607 0.148201 0.067709
v 0.393513 0.150443 0.075528
v -0.400922 0.147725 0.074890
v -0.393513 0.150443 0.075528
v -0.393534 0.148159 0.067685
v -0.394442 0.142238 0.062561
v -0.402001 0.141638 0.065471
v -0.405116 0.141053 0.072540
v 0.402056 0.141664 0.254010
v 0.405133 0.140982 0.246942
v 0.400931 0.147699 0.244612
v 0.393513 0.150443 0.244002
v 0.393607 0.148201 0.251821
v 0.394572 0.142364 0.256914
v -0.402056 0.141664 0.254010
v -0.394572 0.142364 0.256914
v -0.393646 0.148198 0.251845
v -0.393587 0.150443 0.244076
v -0.400956 0.147695 0.244652
v -0.405133 0.140982 0.246942
v 0.438836 0.000000 0.010978
v 0.428504 0.000000 0.000000
v 0.435810 0.000000 0.003215
v -0.438836 0.000000 0.010978
v -0.435810 0.000000 0.003215
v -0.428504 0.000000 0.000000
v 0.438836 0.000000 0.308552
v 0.435810 0.000000 0.316315
v 0.428504 0.000000 0.319530
v -0.438836 0.000000 0.308552
v -0.428504 0.000000 0.319530
v -0.435810 0.000000 0.316315
v 0.399721 0.146851 0.068710
v -0.399688 0.146822 0.068689
v 0.399730 0.146833 0.250809
v -0.399748 0.146829 0.250827
v -0.400922 0.147725 -0.074890
v -0.405116 0.141053 -0.072540
v -0.402042 0.141702 -0.065508
v -0.394572 0.142364 -0.062616
v -0.393607 0.148201 -0.067709
v -0.393513 0.150443 -0.075528
v 0.400922 0.147725 -0.074890
v 0.393513 0.150443 -0.075528
v 0.393534 0.148159 -0.067685
v 0.394442 0.142238 -0.062561
v 0.402001 0.141638 -0.065471
v 0.405116 0.141053 -0.072540
v -0.402056 0.141664 -0.254010
v -0.405133 0.140982 -0.246942
v -0.400931 0.147699 -0.244612
v -0.393513 0.150443 -0.244002
v -0.393607 0.148201 -0.251821
v -0.394572 0.142364 -0.256914
v 0.402056 0.141664 -0.254010
v 0.394572 0.142364 -0.256914
v 0.393646 0.148198 -0.251845
v 0.393587 0.150443 -0.244076
v 0.400956 0.147695 -0.244652
v 0.405133 0.140982 -0.246942
v -0.438836 0.000000 -0.010978
v -0.428504 0.000000 0.000000
v -0.435810 0.000000 -0.003215
v 0.438836 0.000000 -0.010978
v 0.435810 0.000000 -0.003215
v 0.428504 0.000000 0.000000
v -0.438836 0.000000 -0.308552
v -0.435810 0.000000 -0.316315
v -0.428504 0.000000 -0.319530
v 0.438836 0.000000 -0.308552
v 0.428504 0.000000 -0.319530
v 0.435810 0.000000 -0.316315
v -0.399721 0.146851 -0.068710
v 0.399688 0.146822 -0.068689
v -0.399730 0.146833 -0.250809
v 0.399748 0.146829 -0.250827
vt 0.449959 0.857589
vt 0.452208 0.850651
vt 0.602041 0.851344
vt 0.604164 0.858409
vt 0.452920 0.843789
vt 0.601436 0.844304
vt 0.438968 0.844707
vt 0.439589 0.851745
vt 0.303513 0.881371
vt 0.302271 0.874467
vt 0.441479 0.853250
vt 0.445776 0.843869
vt 0.439178 0.151290
vt 0.392295 0.986562
vt 0.446061 0.152084
vt 0.384764 0.985719
vt 0.453247 0.152118
vt 0.452686 0.145224
vt 0.601886 0.145198
vt 0.439860 0.144188
vt 0.601389 0.152072
vt 0.302628 0.121290
vt 0.450618 0.138341
vt 0.303876 0.114386
vt 0.603896 0.138288
vt 0.614810 0.852299
vt 0.615410 0.845239
vt 0.752196 0.875059
vt 0.750952 0.881970
vt 0.608597 0.844399
vt 0.608505 0.152005
vt 0.443920 0.139731
vt 0.615300 0.151196
vt 0.389201 0.011709
vt 0.614696 0.144135
vt 0.750822 0.114420
vt 0.752069 0.121330
vt 0.445200 0.849684
vt 0.445489 0.146243
vt 0.396481 0.010897
vt 0.610963 0.856965
vt 0.665817 0.987621
vt 0.609173 0.850220
vt 0.609078 0.146202
vt 0.658404 0.988395
vt 0.610571 0.139743
vt 0.658044 0.010892
vt 0.665323 0.011702
vt 0.446583 0.849289
vt 0.446832 0.145680
vt 0.607953 0.850863
vt 0.607695 0.145642
vt 0.449959 0.857589
vt 0.452208 0.850651
vt 0.602041 0.851344
vt 0.604164 0.858409
vt 0.452920 0.843789
vt 0.601436 0.844304
vt 0.438968 0.844707
vt 0.439589 0.851745
vt 0.303513 0.881371
vt 0.302271 0.874467
vt 0.441479 0.853250
vt 0.392295 0.986562
vt 0.384764 0.985719
vt 0.445776 0.843869
vt 0.446061 0.152084
vt 0.453247 0.152118
vt 0.439178 0.151290
vt 0.452686 0.145224
vt 0.601886 0.145198
vt 0.601389 0.152072
vt 0.450618 0.138341
vt 0.603896 0.138288
vt 0.443920 0.139731
vt 0.389201 0.011709
vt 0.396481 0.010897
vt 0.439860 0.144188
vt 0.302628 0.121290
vt 0.303876 0.114386
vt 0.610963 0.856965
vt 0.665817 0.987621
vt 0.658404 0.988395
vt 0.614810 0.852299
vt 0.615410 0.845239
vt 0.752196 0.875059
vt 0.750952 0.881970
vt 0.608597 0.844399
vt 0.608505 0.152005
vt 0.615300 0.151196
vt 0.614696 0.144135
vt 0.750822 0.114420
vt 0.752069 0.121330
vt 0.610571 0.139743
vt 0.658044 0.010892
vt 0.665323 0.011702
vt 0.446583 0.849289
vt 0.445200 0.849684
vt 0.446832 0.145680
vt 0.445489 0.146243
vt 0.609173 0.850220
vt 0.607953 0.850863
vt 0.607695 0.145642
vt 0.609078 0.146202
vt 0.449959 0.857589
vt 0.452208 0.850651
vt 0.602041 0.851344
vt 0.604164 0.858409
vt 0.452920 0.843789
vt 0.601436 0.844304
vt 0.438968 0.844707
vt 0.439589 0.851745
vt 0.303513 0.881371
vt 0.302271 0.874467
vt 0.441479 0.853250
vt 0.392295 0.986562
vt 0.384764 0.985719
vt 0.445776 0.843869
vt 0.446061 0.152084
vt 0.453247 0.152118
vt 0.439178 0.151290
vt 0.452686 0.145224
vt 0.601886 0.145198
vt 0.601389 0.152072
vt 0.450618 0.138341
vt 0.603896 0.138288
vt 0.443920 0.139731
vt 0.389201 0.011709
vt 0.396481 0.010897
vt 0.439860 0.144188
vt 0.302628 0.121290
vt 0.303876 0.114386
vt 0.610963 0.856965
vt 0.665817 0.987621
vt 0.658404 0.988395
vt 0.614810 0.852299
vt 0.615410 0.845239
vt 0.752196 0.875059
vt 0.750952 0.881970
vt 0.608597 0.844399
vt 0.608505 0.152005
vt 0.615300 0.151196
vt 0.614696 0.144135
vt 0.750822 0.114420
vt 0.752069 0.121330
vt 0.610571 0.139743
vt 0.658044 0.010892
vt 0.665323 0.011702
vt 0.446583 0.849289
vt 0.445200 0.849684
vt 0.446832 0.145680
vt 0.445489 0.146243
vt 0.609173 0.850220
vt 0.607953 0.850863
vt 0.607695 0.145642
vt 0.609078 0.146202
vn 0.969766 0.243891 -0.008444
vn 0.846492 0.532364 -0.006311
vn 0.846523 0.532313 0.006512
vn 0.969763 0.243903 0.008446
vn 0.343742 0.939025 -0.008516
vn 0.003553 0.999911 -0.012867
vn 0.003549 0.999912 0.012764
vn 0.343854 0.938984 0.008596
vn 0.002834 0.413310 -0.910586
vn 0.357299 0.451940 -0.817366
vn 0.358865 0.446053 -0.819910
vn 0.004165 0.403437 -0.914998
vn 0.867092 0.363559 -0.340552
vn 0.970562 0.240133 -0.018564
vn 0.868834 0.357437 -0.342588
vn 0.002124 0.960783 -0.277294
vn -0.002144 0.960771 -0.277336
vn -0.003559 0.999912 -0.012798
vn 0.001948 0.655930 -0.754819
vn -0.002839 0.413358 -0.910564
vn -0.002040 0.655903 -0.754843
vn -0.344902 0.938597 -0.008881
vn -0.345186 0.938496 0.008488
vn -0.003546 0.999913 0.012737
vn -0.847086 0.531416 -0.006568
vn -0.969768 0.243879 -0.008489
vn -0.969767 0.243888 0.008444
vn -0.847173 0.531278 0.006503
vn -0.865699 0.364427 -0.343159
vn -0.867469 0.358360 -0.345074
vn -0.970540 0.240211 -0.018735
vn -0.354647 0.452057 -0.818456
vn -0.004161 0.403439 -0.914997
vn -0.356311 0.446157 -0.820967
vn 0.867708 0.363278 0.339282
vn 0.869430 0.357158 0.341364
vn 0.970563 0.240133 0.018549
vn 0.358591 0.452009 0.816762
vn 0.002841 0.413275 0.910602
vn 0.004181 0.403441 0.914996
vn 0.360099 0.446161 0.819310
vn 0.002029 0.656700 0.754149
vn -0.002019 0.656686 0.754162
vn -0.002840 0.413305 0.910588
vn 0.002200 0.961058 0.276339
vn -0.002153 0.961052 0.276360
vn -0.358617 0.451911 0.816805
vn -0.360099 0.446161 0.819310
vn -0.004181 0.403441 0.914996
vn -0.867735 0.363178 0.339318
vn -0.970563 0.240133 0.018549
vn -0.869430 0.357158 0.341364
vn 0.285974 0.930314 -0.229642
vn 0.786889 0.557713 -0.264125
vn 0.298671 0.630337 -0.716569
vn -0.784706 0.557707 -0.270554
vn -0.284235 0.929411 -0.235384
vn -0.294418 0.627065 -0.721185
vn 0.301732 0.629715 0.715833
vn 0.789133 0.555432 0.262230
vn 0.289024 0.929535 0.228975
vn -0.790456 0.552967 0.263452
vn -0.302678 0.627329 0.717526
vn -0.291284 0.928299 0.231116
vn 0.969766 0.243891 -0.008444
vn 0.846492 0.532364 -0.006311
vn 0.846523 0.532313 0.006512
vn 0.969763 0.243903 0.008446
vn 0.343742 0.939025 -0.008516
vn 0.003553 0.999911 -0.012867
vn 0.003549 0.999912 0.012764
vn 0.343854 0.938984 0.008596
vn 0.002834 0.413310 -0.910586
vn 0.357299 0.451940 -0.817366
vn 0.358865 0.446054 -0.819910
vn 0.004165 0.403437 -0.914998
vn 0.867093 0.363559 -0.340551
vn 0.970562 0.240133 -0.018564
vn 0.868835 0.357436 -0.342587
vn 0.002124 0.960783 -0.277293
vn -0.002144 0.960771 -0.277335
vn -0.003559 0.999912 -0.012798
vn 0.001948 0.655932 -0.754817
vn -0.002839 0.413358 -0.910564
vn -0.002040 0.655905 -0.754841
vn -0.344902 0.938597 -0.008881
vn -0.345186 0.938496 0.008488
vn -0.003546 0.999913 0.012737
vn -0.847086 0.531416 -0.006568
vn -0.969768 0.243879 -0.008489
vn -0.969767 0.243888 0.008444
vn -0.847172 0.531278 0.006503
vn -0.865699 0.364428 -0.343158
vn -0.867469 0.358361 -0.345073
vn -0.970540 0.240211 -0.018734
vn -0.354646 0.452057 -0.818457
vn -0.004161 0.403439 -0.914997
vn -0.356309 0.446157 -0.820968
vn 0.867708 0.363278 0.339282
vn 0.869430 0.357158 0.341364
vn 0.970563 0.240133 0.018549
vn 0.358590 0.452009 0.816763
vn 0.002841 0.413275 0.910602
vn 0.004181 0.403441 0.914996
vn 0.360098 0.446161 0.819311
vn 0.002029 0.656699 0.754150
vn -0.002019 0.656685 0.754163
vn -0.002840 0.413305 0.910588
vn 0.002200 0.961059 0.276336
vn -0.002153 0.961053 0.276357
vn -0.358616 0.451911 0.816806
vn -0.360098 0.446161 0.819311
vn -0.004181 0.403441 0.914996
vn -0.867735 0.363178 0.339319
vn -0.970563 0.240133 0.018549
vn -0.869430 0.357158 0.341364
vn 0.285974 0.930313 -0.229643
vn 0.786888 0.557713 -0.264127
vn 0.298671 0.630336 -0.716570
vn -0.784704 0.557708 -0.270557
vn -0.284234 0.929411 -0.235384
vn -0.294420 0.627067 -0.721182
vn 0.301733 0.629712 0.715835
vn 0.789131 0.555434 0.262232
vn 0.289025 0.929535 0.228973
vn -0.790455 0.552968 0.263454
vn -0.302679 0.627327 0.717528
vn -0.291283 0.928298 0.231120
vn -0.969766 0.243891 0.008444
vn -0.846492 0.532364 0.006311
vn -0.846523 0.532313 -0.006512
vn -0.969763 0.243903 -0.008446
vn -0.343742 0.939025 0.008516
vn -0.003553 0.999911 0.012867
vn -0.003549 0.999912 -0.012764
vn -0.343854 0.938984 -0.008596
vn -0.002834 0.413310 0.910586
vn -0.357299 0.451940 0.817366
vn -0.358865 0.446054 0.819910
vn -0.004165 0.403437 0.914998
vn -0.867093 0.363559 0.340551
vn -0.970562 0.240133 0.018564
vn -0.868835 0.357436 0.342587
vn -0.002124 0.960783 0.277293
vn 0.002144 0.960771 0.277335
vn 0.003559 0.999912 0.012798
vn -0.001948 0.655932 0.754817
vn 0.002839 0.413358 0.910564
vn 0.002040 0.655905 0.754841
vn 0.344902 0.938597 0.008881
vn 0.345186 0.938496 -0.008488
vn 0.003546 0.999913 -0.012737
vn 0.847086 0.531416 0.006568
vn 0.969768 0.243879 0.008489
vn 0.969767 0.243888 -0.008444
vn 0.847172 0.531278 -0.006503
vn 0.865699 0.364428 0.343158
vn 0.867469 0.358361 0.345073
vn 0.970540 0.240211 0.018734
vn 0.354646 0.452057 0.818457
vn 0.004161 0.403439 0.914997
vn 0.356309 0.446157 0.820968
vn -0.867708 0.363278 -0.339282
vn -0.869430 0.357158 -0.341364
vn -0.970563 0.240133 -0.018549
vn -0.358590 0.452009 -0.816763
vn -0.002841 0.413275 -0.910602
vn -0.004181 0.403441 -0.914996
vn -0.360098 0.446161 -0.819311
vn -0.002029 0.656699 -0.754150
vn 0.002019 0.656685 -0.754163
vn 0.002840 0.413305 -0.910588
vn -0.002200 0.961059 -0.276336
vn 0.002153 0.961053 -0.276357
vn 0.358616 0.451911 -0.816806
vn 0.360098 0.446161 -0.819311
vn 0.004181 0.403441 -0.914996
vn 0.867735 0.363178 -0.339319
vn 0.970563 0.240133 -0.018549
vn 0.869430 0.357158 -0.341364
vn -0.285974 0.930313 0.229643
vn -0.786888 0.557713 0.264127
vn -0.298671 0.630336 0.716570
vn 0.784704 0.557708 0.270557
vn 0.284234 0.929411 0.235384
vn 0.294420 0.627067 0.721182
vn -0.301733 0.629712 -0.715835
vn -0.789131 0.555434 -0.262232
vn -0.289025 0.929535 -0.228973
vn 0.790455 0.552968 -0.263454
vn 0.302679 0.627327 -0.717528
vn 0.291283 0.928298 -0.231120
s 1
g pCube24
usemtl initialShadingGroup
f 2/1/1 1/2/2 15/3/3 14/4/4
s 2
f 1/2/5 6/5/6 16/6/7 15/3/8
s 3
f 4/7/9 3/8/10 27/9/11 26/10/12
s 1
f 3/11/13 2/1/1 25/14/14 27/16/15
s 2
f 6/5/6 5/12/16 9/15/17 8/17/18
s 3
f 5/12/19 4/7/9 10/13/20 9/15/21
s 2
f 8/17/18 7/18/22 23/19/23 22/21/24
s 4
f 7/18/25 12/23/26 24/25/27 23/19/28
f 12/23/26 11/32/29 29/34/30 28/40/31
s 3
f 11/20/32 10/13/20 30/22/33 29/24/34
s 1
f 14/4/4 13/41/35 32/42/36 31/45/37
s 5
f 13/26/38 18/27/39 33/28/40 32/29/41
f 18/27/39 17/30/42 21/31/43 20/33/44
s 2
f 17/30/45 16/6/7 22/21/24 21/31/46
s 5
f 20/33/44 19/35/47 36/36/48 35/37/49
s 4
f 19/46/50 24/25/27 34/47/51 36/48/52
s 3
f 4/7/9 26/10/12 30/22/33 10/13/20
s 2
f 6/5/6 8/17/18 22/21/24 16/6/7
s 5
f 18/27/39 20/33/44 35/37/49 33/28/40
s 4
f 12/23/26 28/40/31 34/47/51 24/25/27
s 1
f 14/4/4 31/45/37 25/14/14 2/1/1
s 2
f 5/12/16 6/5/6 1/2/5 37/49/53
s 1
f 1/2/2 2/1/1 3/11/13 37/49/54
s 3
f 3/8/10 4/7/9 5/12/19 37/38/55
s 4
f 11/32/29 12/23/26 7/18/25 38/50/56
s 2
f 7/18/22 8/17/18 9/15/17 38/50/57
s 3
f 9/15/21 10/13/20 11/20/32 38/39/58
s 5
f 17/30/42 18/27/39 13/26/38 39/43/59
s 1
f 13/41/35 14/4/4 15/3/3 39/51/60
s 2
f 15/3/8 16/6/7 17/30/45 39/51/61
s 4
f 23/19/28 24/25/27 19/46/50 40/52/62
s 5
f 19/35/47 20/33/44 21/31/43 40/44/63
s 2
f 21/31/46 22/21/24 23/19/23 40/52/64
s 6
f 42/53/65 41/54/66 55/55/67 54/56/68
s 7
f 41/54/69 46/57/70 56/58/71 55/55/72
s 8
f 44/59/73 43/60/74 67/61/75 66/62/76
s 6
f 43/63/77 42/53/65 65/64/78 67/65/79
s 7
f 46/57/70 45/66/80 49/67/81 48/68/82
s 8
f 45/66/83 44/59/73 50/69/84 49/67/85
s 7
f 48/68/82 47/70/86 63/71/87 62/72/88
s 9
f 47/70/89 52/73/90 64/74/91 63/71/92
f 52/73/90 51/75/93 69/76/94 68/77/95
s 8
f 51/78/96 50/69/84 70/79/97 69/80/98
s 6
f 54/56/68 53/81/99 72/82/100 71/83/101
s 10
f 53/84/102 58/85/103 73/86/104 72/87/105
f 58/85/103 57/88/106 61/89/107 60/90/108
s 7
f 57/88/109 56/58/71 62/72/88 61/89/110
s 10
f 60/90/108 59/91/111 76/92/112 75/93/113
s 9
f 59/94/114 64/74/91 74/95/115 76/96/116
s 8
f 44/59/73 66/62/76 70/79/97 50/69/84
s 7
f 46/57/70 48/68/82 62/72/88 56/58/71
s 10
f 58/85/103 60/90/108 75/93/113 73/86/104
s 9
f 52/73/90 68/77/95 74/95/115 64/74/91
s 6
f 54/56/68 71/83/101 65/64/78 42/53/65
s 7
f 45/66/80 46/57/70 41/54/69 77/97/117
s 6
f 41/54/66 42/53/65 43/63/77 77/97/118
s 8
f 43/60/74 44/59/73 45/66/83 77/98/119
s 9
f 51/75/93 52/73/90 47/70/89 78/99/120
s 7
f 47/70/86 48/68/82 49/67/81 78/99/121
s 8
f 49/67/85 50/69/84 51/78/96 78/100/122
s 10
f 57/88/106 58/85/103 53/84/102 79/101/123
s 6
f 53/81/99 54/56/68 55/55/67 79/102/124
s 7
f 55/55/72 56/58/71 57/88/109 79/102/125
s 9
f 63/71/92 64/74/91 59/94/114 80/103/126
s 10
f 59/91/111 60/90/108 61/89/107 80/104/127
s 7
f 61/89/110 62/72/88 63/71/87 80/103/128
s 11
f 82/105/129 81/106/130 95/107/131 94/108/132
s 12
f 81/106/133 86/109/134 96/110/135 95/107/136
s 13
f 84/111/137 83/112/138 107/113/139 106/114/140
s 11
f 83/115/141 82/105/129 105/116/142 107/117/143
s 12
f 86/109/134 85/118/144 89/119/145 88/120/146
s 13
f 85/118/147 84/111/137 90/121/148 89/119/149
s 12
f 88/120/146 87/122/150 103/123/151 102/124/152
s 14
f 87/122/153 92/125/154 104/126/155 103/123/156
f 92/125/154 91/127/157 109/128/158 108/129/159
s 13
f 91/130/160 90/121/148 110/131/161 109/132/162
s 11
f 94/108/132 93/133/163 112/134/164 111/135/165
s 15
f 93/136/166 98/137/167 113/138/168 112/139/169
f 98/137/167 97/140/170 101/141/171 100/142/172
s 12
f 97/140/173 96/110/135 102/124/152 101/141/174
s 15
f 100/142/172 99/143/175 116/144/176 115/145/177
s 14
f 99/146/178 104/126/155 114/147/179 116/148/180
s 13
f 84/111/137 106/114/140 110/131/161 90/121/148
s 12
f 86/109/134 88/120/146 102/124/152 96/110/135
s 15
f 98/137/167 100/142/172 115/145/177 113/138/168
s 14
f 92/125/154 108/129/159 114/147/179 104/126/155
s 11
f 94/108/132 111/135/165 105/116/142 82/105/129
s 12
f 85/118/144 86/109/134 81/106/133 117/149/181
s 11
f 81/106/130 82/105/129 83/115/141 117/149/182
s 13
f 83/112/138 84/111/137 85/118/147 117/150/183
s 14
f 91/127/157 92/125/154 87/122/153 118/151/184
s 12
f 87/122/150 88/120/146 89/119/145 118/151/185
s 13
f 89/119/149 90/121/148 91/130/160 118/152/186
s 15
f 97/140/170 98/137/167 93/136/166 119/153/187
s 11
f 93/133/163 94/108/132 95/107/131 119/154/188
s 12
f 95/107/136 96/110/135 97/140/173 119/154/189
s 14
f 103/123/156 104/126/155 99/146/178 120/155/190
s 15
f 99/143/175 100/142/172 101/141/171 120/156/191
s 12
f 101/141/174 102/124/152 103/123/151 120/155/192
